<svg xmlns="http://www.w3.org/2000/svg" xmlns:xlink="http://www.w3.org/1999/xlink" viewBox="0,0,256,256" width="64px" height="64px" fill-rule="nonzero"><g fill="#000000" fill-rule="nonzero" stroke="none" stroke-width="1" stroke-linecap="butt" stroke-linejoin="miter" stroke-miterlimit="10" stroke-dasharray="" stroke-dashoffset="0" font-family="none" font-weight="none" font-size="none" text-anchor="none" style="mix-blend-mode: normal"><path d="M128,256c-70.69245,0 -128,-57.30755 -128,-128v0c0,-70.69245 57.30755,-128 128,-128v0c70.69245,0 128,57.30755 128,128v0c0,70.69245 -57.30755,128 -128,128z" id="shape"></path></g><g fill="none" fill-rule="nonzero" stroke="none" stroke-width="none" stroke-linecap="none" stroke-linejoin="none" stroke-miterlimit="10" stroke-dasharray="" stroke-dashoffset="0" font-family="none" font-weight="none" font-size="none" text-anchor="none" style="mix-blend-mode: normal"><g transform="scale(4,4)"><ellipse cx="32" cy="33" rx="29" ry="20" fill="#ffce29" stroke="none" stroke-width="1" stroke-linecap="butt" stroke-linejoin="miter"></ellipse><path d="M13.977,21.338c1.449,-0.937 3.071,-1.763 4.831,-2.454" fill="none" stroke="#ffffff" stroke-width="3" stroke-linecap="round" stroke-linejoin="round"></path><ellipse cx="32" cy="61" rx="23" ry="3" fill-opacity="0" fill="#000000" stroke="none" stroke-width="1" stroke-linecap="butt" stroke-linejoin="miter" opacity="0.3"></ellipse><path d="M60.113,28.089c-2.337,0.42 -4.113,2.454 -4.113,4.911c0,8.271 -10.767,15 -24,15c-2.664,0 -4.82,2.089 -4.971,4.714c1.612,0.185 3.271,0.286 4.971,0.286c16.262,0 29,-8.785 29,-20c0,-1.694 -0.31,-3.339 -0.887,-4.911z" fill-opacity="0" fill="#000000" stroke="none" stroke-width="1" stroke-linecap="butt" stroke-linejoin="miter" opacity="0.15"></path><path d="M32,18c2.659,0 4.812,-2.081 4.97,-4.7c-1.616,-0.193 -3.275,-0.3 -4.97,-0.3c-16.262,0 -29,8.785 -29,20c0,1.702 0.297,3.346 0.852,4.914c2.354,-0.406 4.148,-2.445 4.148,-4.914c0,-8.271 10.767,-15 24,-15z" fill="#ffffff" stroke="none" stroke-width="1" stroke-linecap="butt" stroke-linejoin="miter" opacity="0.3"></path><path d="M42.947,19.717c-0.438,-0.143 -0.816,0.32 -0.591,0.722c4.5,8.045 -4.514,13.897 -6.131,6.672l-0.614,-6.518c-0.041,-0.438 -0.588,-0.613 -0.876,-0.28l-0.774,0.895c-0.095,0.11 -0.233,0.173 -0.378,0.173h-3.165c-0.145,0 -0.283,-0.063 -0.378,-0.173l-0.774,-0.895c-0.288,-0.333 -0.835,-0.158 -0.876,0.28l-0.614,6.518c-1.616,7.224 -10.629,1.308 -6.132,-6.741c0.225,-0.402 -0.153,-0.863 -0.592,-0.72c-7.823,2.552 -13.049,7.552 -13.049,13.349c0,5.716 4.992,9.502 8.122,11.247c0.408,0.227 0.87,-0.194 0.695,-0.626c-2.053,-5.065 4.011,-7.422 7.408,-2.309c0.211,0.317 0.693,0.303 0.856,-0.04c1.451,-3.059 5.108,0.606 6.439,4.155c0.164,0.438 0.77,0.436 0.931,-0.004c1.302,-3.555 5.006,-7.214 6.464,-4.15c0.163,0.343 0.645,0.356 0.856,0.039c3.397,-5.114 9.461,-2.758 7.408,2.308c-0.175,0.432 0.288,0.854 0.695,0.626c3.129,-1.745 8.122,-5.531 8.122,-11.247c-0.001,-5.777 -5.691,-10.883 -13.052,-13.281z" fill="#000000" stroke="none" stroke-width="1" stroke-linecap="butt" stroke-linejoin="miter"></path></g></g></svg>