<svg xmlns="http://www.w3.org/2000/svg" xmlns:xlink="http://www.w3.org/1999/xlink" viewBox="0,0,256,256" width="64px" height="64px" fill-rule="nonzero"><g fill="#94d82d" fill-rule="nonzero" stroke="none" stroke-width="1" stroke-linecap="butt" stroke-linejoin="miter" stroke-miterlimit="10" stroke-dasharray="" stroke-dashoffset="0" font-family="none" font-weight="none" font-size="none" text-anchor="none" style="mix-blend-mode: normal"><path d="M128,256c-70.69245,0 -128,-57.30755 -128,-128v0c0,-70.69245 57.30755,-128 128,-128v0c70.69245,0 128,57.30755 128,128v0c0,70.69245 -57.30755,128 -128,128z" id="shape"></path></g><g fill="none" fill-rule="nonzero" stroke="none" stroke-width="none" stroke-linecap="none" stroke-linejoin="none" stroke-miterlimit="10" stroke-dasharray="" stroke-dashoffset="0" font-family="none" font-weight="none" font-size="none" text-anchor="none" style="mix-blend-mode: normal"><g transform="scale(4,4)"><ellipse cx="32" cy="33" rx="21" ry="23" fill="#ffce29" stroke="none" stroke-width="1" stroke-linecap="butt" stroke-linejoin="miter"></ellipse><circle cx="12.5" cy="32.882" r="4.5" fill="#ffce29" stroke="none" stroke-width="1" stroke-linecap="butt" stroke-linejoin="miter"></circle><circle cx="51.5" cy="32.882" r="4.5" fill="#ffce29" stroke="none" stroke-width="1" stroke-linecap="butt" stroke-linejoin="miter"></circle><ellipse cx="32" cy="61" rx="19" ry="3" fill-opacity="0" fill="#000000" stroke="none" stroke-width="1" stroke-linecap="butt" stroke-linejoin="miter" opacity="0.3"></ellipse><path d="M18.038,20c0,0 7.451,2 13.97,2c6.519,0 13.97,-2 13.97,-2v1.014c0,4.134 2.726,7.506 6.576,7.504h0.046c0.004,-6.598 -1.795,-13.714 -7.054,-18.348c-7.796,-6.869 -19.278,-6.869 -27.075,0c-5.259,4.634 -7.073,13.337 -7.073,18.337c0.023,0 0.046,0 0.069,0c3.848,0 6.572,-3.35 6.572,-7.482v-1.025z" fill="#9c34c2" stroke="none" stroke-width="1" stroke-linecap="butt" stroke-linejoin="miter"></path><path d="M45.7,42.298c-0.702,1.306 -1.559,2.516 -2.543,3.595c-1.483,1.625 -2.228,2.253 -4.017,3.259c-3.236,1.82 -3.084,5.562 -2.73,6.323c3.825,-0.888 7.466,-2.956 10.438,-6.212c2.439,-2.672 4.143,-5.839 5.13,-9.204c-2.333,-0.95 -5.055,-0.033 -6.278,2.239z" fill-opacity="0" fill="#000000" stroke="none" stroke-width="1" stroke-linecap="butt" stroke-linejoin="miter" opacity="0.15"></path><path d="M21.776,13.922c2.856,-2.517 6.49,-3.903 10.231,-3.903c2.547,0 4.626,-1.911 4.937,-4.374c-6.332,-1.589 -13.234,-0.09 -18.474,4.527c-3.014,2.656 -4.895,6.647 -5.952,10.512c4.864,0.34 6.267,-2.573 6.356,-2.741c0.873,-1.656 1.798,-3.048 2.902,-4.021z" fill="#ffffff" stroke="none" stroke-width="1" stroke-linecap="butt" stroke-linejoin="miter" opacity="0.3"></path><path d="M17.985,16.363c0.766,-1.361 1.691,-2.591 2.799,-3.566c0.85,-0.749 1.763,-1.407 2.725,-1.967" fill="none" stroke="#ffffff" stroke-width="3" stroke-linecap="round" stroke-linejoin="round"></path><circle cx="23.5" cy="32.5" r="2.5" fill="#9c34c2" stroke="none" stroke-width="1" stroke-linecap="butt" stroke-linejoin="miter"></circle><circle cx="40.5" cy="32.5" r="2.5" fill="#9c34c2" stroke="none" stroke-width="1" stroke-linecap="butt" stroke-linejoin="miter"></circle></g></g></svg>