<svg xmlns="http://www.w3.org/2000/svg" xmlns:xlink="http://www.w3.org/1999/xlink" viewBox="0,0,256,256" width="64px" height="64px" fill-rule="nonzero"><g fill="#f92b2b" fill-rule="nonzero" stroke="none" stroke-width="1" stroke-linecap="butt" stroke-linejoin="miter" stroke-miterlimit="10" stroke-dasharray="" stroke-dashoffset="0" font-family="none" font-weight="none" font-size="none" text-anchor="none" style="mix-blend-mode: normal"><path d="M128,256c-70.69245,0 -128,-57.30755 -128,-128v0c0,-70.69245 57.30755,-128 128,-128v0c70.69245,0 128,57.30755 128,128v0c0,70.69245 -57.30755,128 -128,128z" id="shape"></path></g><g fill="none" fill-rule="nonzero" stroke="none" stroke-width="none" stroke-linecap="none" stroke-linejoin="none" stroke-miterlimit="10" stroke-dasharray="" stroke-dashoffset="0" font-family="none" font-weight="none" font-size="none" text-anchor="none" style="mix-blend-mode: normal"><g transform="scale(4,4)"><ellipse cx="32" cy="61" rx="19" ry="3" fill-opacity="0" fill="#000000" stroke="none" stroke-width="1" stroke-linecap="butt" stroke-linejoin="miter" opacity="0.3"></ellipse><path d="M16.809,14.514c2.399,1.807 6.169,4.531 7.408,7.009c0,0 -9.887,-0.139 -18.435,6.915c-1.237,1.02 -0.794,3.026 0.751,3.454c3.305,0.916 8.297,2.668 12.146,5.627c0,0 -7.457,2.346 -10.516,9.725c-0.619,1.494 0.722,3.075 2.297,2.709c5.149,-1.197 15.586,-2.705 23.141,1.948c0,0 22.331,1.849 25.68,-11.181c2.414,-9.398 -1.677,-14.597 -5.8,-19.195c-0.001,0 -13.901,-18.603 -36.166,-10.49c-1.488,0.541 -1.771,2.526 -0.506,3.479z" fill="#345cc2" stroke="none" stroke-width="1" stroke-linecap="butt" stroke-linejoin="miter"></path><path d="M55.954,28.588c0,0 4.968,-4.095 5.045,-10.412c0.011,-0.949 -0.682,-1.777 -1.616,-1.947c-2.265,-0.413 -6.7,-0.664 -10.993,2.288z" fill="#345cc2" stroke="none" stroke-width="1" stroke-linecap="butt" stroke-linejoin="miter"></path><path d="M41.483,21.009c0.761,0.025 1.247,-0.778 0.914,-1.463c-1.747,-3.583 -5.327,-5.532 -7.32,-6.379c-0.836,-0.355 -1.805,-0.062 -2.303,0.709c-1.014,1.57 -2.559,4.514 -2.754,8.096c-0.044,0.803 0.824,1.316 1.518,0.909c3.099,-1.819 7.615,-1.947 9.945,-1.872z" fill="#fbbfc6" stroke="none" stroke-width="1" stroke-linecap="butt" stroke-linejoin="miter"></path><path d="M59.995,35.796c-2.494,-0.358 -4.914,1.181 -5.556,3.678c-0.248,0.965 -1.004,3.904 -6.605,5.86c-2.471,0.862 -3.811,3.466 -3.172,5.955c6.147,-1.104 12.897,-3.865 14.62,-10.571c0.457,-1.784 0.679,-3.416 0.713,-4.922z" fill-opacity="0" fill="#000000" stroke="none" stroke-width="1" stroke-linecap="butt" stroke-linejoin="miter" opacity="0.15"></path><path d="M31.115,9.118c-4.128,-0.382 -8.746,0.074 -13.8,1.916c-1.488,0.542 -1.771,2.527 -0.506,3.48c2.399,1.807 6.169,4.531 7.408,7.009c0,0 -9.887,-0.139 -18.435,6.915c-1.237,1.02 -0.794,3.026 0.751,3.454c0.637,0.177 1.35,0.395 2.092,0.636c0.113,-0.079 0.232,-0.144 0.34,-0.233c6.935,-5.723 15.129,-5.772 15.182,-5.772c1.745,0.047 3.377,-0.863 4.305,-2.341c0.929,-1.478 1.019,-3.333 0.237,-4.894c-0.908,-1.817 -2.451,-3.5 -4.126,-4.998c0.658,-0.103 1.313,-0.179 1.963,-0.229c2.606,-0.204 4.567,-2.376 4.589,-4.943z" fill="#ffffff" stroke="none" stroke-width="1" stroke-linecap="butt" stroke-linejoin="miter" opacity="0.3"></path><path d="M38.024,26.018c7.715,0 6.11,15.133 10.318,15.133c2.806,0 6.576,-8.648 7.979,-8.648c1.548,0 0.591,13.417 -5.505,14.181l-13.823,0.818l-2.475,-4.604c-5.315,-2.715 -4.909,-16.88 3.506,-16.88z" fill="#ffffff" stroke="none" stroke-width="1" stroke-linecap="butt" stroke-linejoin="miter"></path><path d="M40.767,37.941c-0.517,2.473 -1.726,4.281 -2.703,4.037c-0.975,-0.244 -1.348,-2.446 -0.831,-4.919c0.517,-2.473 1.726,-4.281 2.703,-4.037c0.976,0.243 1.348,2.446 0.831,4.919z" fill="#345cc2" stroke="none" stroke-width="1" stroke-linecap="butt" stroke-linejoin="miter"></path><path d="M50.158,40.165c-0.267,1.372 -0.2,2.509 0.229,2.777c0.558,0.349 1.509,-0.908 2.123,-2.808c0.524,-1.622 0.631,-3.18 0.304,-3.821c-1.016,0.656 -1.849,2.567 -2.656,3.852z" fill="#345cc2" stroke="none" stroke-width="1" stroke-linecap="butt" stroke-linejoin="miter"></path><path d="M27.983,45.367c0,-1.795 0.984,-4.381 3.96,-4.381c2.976,0 4.203,3.957 8.158,4.913c2.483,0.6 8.484,-1.645 10.93,-0.603c1.531,0.653 2.684,1.509 2.446,2.992c-0.709,4.432 -6.634,6.729 -13.461,6.729c-10.179,0 -12.033,-7.056 -12.033,-9.65z" fill="#fbbfc6" stroke="none" stroke-width="1" stroke-linecap="butt" stroke-linejoin="miter"></path><path d="M40.016,55.017c6.827,0 12.752,-2.297 13.461,-6.729c0.132,-0.821 -0.172,-1.445 -0.721,-1.954c-1.586,-0.249 -3.262,0.268 -4.437,1.53c-0.967,1.037 -3.978,2.153 -8.303,2.153c-2.528,0 -4.595,1.882 -4.931,4.317c1.375,0.428 3.002,0.683 4.931,0.683z" fill-opacity="0" fill="#000000" stroke="none" stroke-width="1" stroke-linecap="butt" stroke-linejoin="miter" opacity="0.15"></path><path d="M34.988,47.314c0.878,0.809 2.244,1.763 4.164,2.286c1.058,0.288 1.154,1.618 0.133,2c-0.628,0.236 -1.43,0.4 -2.446,0.4c-2.702,0 -4.044,-1.986 -3.814,-4.09c0.095,-0.869 1.291,-1.215 1.963,-0.596z" fill="#fd3c4f" stroke="none" stroke-width="1" stroke-linecap="butt" stroke-linejoin="miter"></path><path d="M55.422,49.315c-1.864,1.054 -3.788,0.873 -4.297,-0.406c-0.509,-1.278 0.589,-3.17 2.454,-4.223c1.864,-1.054 3.788,-0.873 4.297,0.406c0.508,1.277 -0.59,3.168 -2.454,4.223z" fill="#345cc2" stroke="none" stroke-width="1" stroke-linecap="butt" stroke-linejoin="miter"></path><path d="M22.522,13.489c0,0 1.972,-0.994 4.972,-0.994" fill="none" stroke="#ffffff" stroke-width="3" stroke-linecap="round" stroke-linejoin="round"></path></g></g></svg>