<svg xmlns="http://www.w3.org/2000/svg" xmlns:xlink="http://www.w3.org/1999/xlink" viewBox="0,0,256,256" width="64px" height="64px" fill-rule="nonzero"><g fill="#2db4d8" fill-rule="nonzero" stroke="none" stroke-width="1" stroke-linecap="butt" stroke-linejoin="miter" stroke-miterlimit="10" stroke-dasharray="" stroke-dashoffset="0" font-family="none" font-weight="none" font-size="none" text-anchor="none" style="mix-blend-mode: normal"><path d="M128,256c-70.69245,0 -128,-57.30755 -128,-128v0c0,-70.69245 57.30755,-128 128,-128v0c70.69245,0 128,57.30755 128,128v0c0,70.69245 -57.30755,128 -128,128z" id="shape"></path></g><g fill="none" fill-rule="nonzero" stroke="none" stroke-width="none" stroke-linecap="none" stroke-linejoin="none" stroke-miterlimit="10" stroke-dasharray="" stroke-dashoffset="0" font-family="none" font-weight="none" font-size="none" text-anchor="none" style="mix-blend-mode: normal"><g transform="scale(4,4)"><path d="M57.149,19.346l-6.109,-6.109c-1.44,-1.443 -3.357,-2.237 -5.399,-2.237h-27.282c-2.042,0 -3.958,0.794 -5.398,2.236l-6.11,6.11c-1.975,1.975 -2.108,5.197 -0.304,7.335l23.002,27.182c0.611,0.722 1.504,1.137 2.451,1.137c0.947,0 1.84,-0.415 2.45,-1.137l23.003,-27.186c1.805,-2.135 1.672,-5.355 -0.304,-7.331z" fill="#fd3c4f" stroke="none" stroke-width="1" stroke-linecap="butt" stroke-linejoin="miter"></path><path d="M57.025,27.183v0c-2.107,-1.784 -5.263,-1.521 -7.046,0.587l-14.503,17.14c-1.784,2.108 -1.521,5.262 0.587,7.046z" fill-opacity="0.01961" fill="#000000" stroke="none" stroke-width="1" stroke-linecap="butt" stroke-linejoin="miter" opacity="0.15"></path><path d="M12.961,13.236l-6.11,6.11c-1.274,1.274 -1.77,3.065 -1.485,4.751c0.484,0.151 0.982,0.249 1.485,0.249c1.28,0 2.559,-0.488 3.536,-1.464l6.112,-6.112c0.502,-0.504 1.146,-0.77 1.86,-0.77h4.641c2.761,0 5,-2.239 5,-5h-9.641c-2.042,0 -3.959,0.794 -5.398,2.236z" fill="#ffffff" stroke="none" stroke-width="1" stroke-linecap="butt" stroke-linejoin="miter" opacity="0.3"></path><path d="M16.331,16.677c0.432,-0.432 1.007,-0.669 1.617,-0.669h1.637c-2.74,1.726 -4.761,4.22 -5.814,6.85c-0.585,1.461 -0.79,2.694 -0.69,3.745l-2.938,-3.495z" fill="#ffce29" stroke="none" stroke-width="1" stroke-linecap="butt" stroke-linejoin="miter"></path><path d="M42.988,36.068l-0.582,0.687c-1.952,1.21 -8.083,2.087 -8.083,2.087c-1.977,-5.93 -12.486,-5.01 -12.319,-1.697l-5.295,-6.257c5.243,2.315 15.048,1.959 22.181,3.386c3.062,0.614 4.142,1.226 4.098,1.794z" fill="#ffce29" stroke="none" stroke-width="1" stroke-linecap="butt" stroke-linejoin="miter"></path><path d="M32.039,49.008l-7.547,-8.919c4.551,2.863 11.036,1.48 14.192,1.064z" fill="#ffce29" stroke="none" stroke-width="1" stroke-linecap="butt" stroke-linejoin="miter"></path><path d="M48.135,29.987c-0.064,-0.164 -0.112,-0.279 -0.112,-0.279c-2.283,-4.567 -15.984,-4.567 -20.551,-5.053c-1.523,-0.162 -6.85,0.486 -4.567,-4.08c1.021,-2.041 3.658,-3.137 4.567,-3.242c8.556,-0.991 11.981,2.605 13.162,4.471c0.418,0.662 1.137,1.055 1.92,1.055h5.469c1.26,0 2.283,-1.023 2.283,-2.283v-1.338l3.752,3.752z" fill="#ffce29" stroke="none" stroke-width="1" stroke-linecap="butt" stroke-linejoin="miter"></path><ellipse cx="32" cy="61" rx="19" ry="3" fill-opacity="0.01961" fill="#000000" stroke="none" stroke-width="1" stroke-linecap="butt" stroke-linejoin="miter" opacity="0.3"></ellipse><path d="M10.096,21.051l4.028,-4.028" fill="none" stroke="#ffffff" stroke-width="3" stroke-linecap="round" stroke-linejoin="round"></path></g></g></svg>